<?xml version="1.0" encoding="UTF-8" standalone="no"?>
<!DOCTYPE svg PUBLIC "-//W3C//DTD SVG 1.1//EN" "http://www.w3.org/Graphics/SVG/1.1/DTD/svg11.dtd">
<svg width="100%" height="100%" viewBox="0 0 500 500" version="1.1" xmlns="http://www.w3.org/2000/svg" xmlns:xlink="http://www.w3.org/1999/xlink" xml:space="preserve" xmlns:serif="http://www.serif.com/" style="fill-rule:evenodd;clip-rule:evenodd;stroke-linejoin:round;stroke-miterlimit:2;">
    <g transform="matrix(1.92966,0,0,1.90363,-373.206,-318.797)">
        <rect x="224.499" y="203.21" width="228.019" height="226.914" style="fill:rgb(238,144,220);"/>
    </g>
    <g transform="matrix(1.6217,0,0,1.8934,-53.4448,-145.504)">
        <rect x="32.956" y="76.848" width="271.32" height="244.404" style="fill:rgb(244,244,84);"/>
        <g transform="matrix(26.7761,0,0,26.7761,-2554.9,-3837.09)">
            <g transform="matrix(12,0,0,12,97.3558,153.469)">
                <path d="M-0.015,-0.449L0.185,-0.449L0.301,-0.204L0.353,-0.31L0.296,-0.429L0.296,-0.449L0.443,-0.449L0.556,-0.2L0.62,-0.398L0.546,-0.398L0.546,-0.449L0.744,-0.449L0.744,-0.398L0.681,-0.398L0.537,0.03L0.516,0.03L0.387,-0.239L0.257,0.03L0.236,0.03L0.036,-0.398L-0.015,-0.398L-0.015,-0.449Z" style="fill-rule:nonzero;"/>
            </g>
        </g>
    </g>
</svg>
