<svg xmlns="http://www.w3.org/2000/svg" xml:space="preserve" width="960" height="873.8" viewBox="0 0 960 874">
  <path fill="#66cc66" d="m63 756 1-1 6-3 1-1 3-2h1l4-3h1l6-3 5-3 4-3h1l2-1 6-4 6-3 3-2 8-6 7-5v-1l1-1h2v2h2v-1l-1-2 2-1 2-2 3-2 5-2 10-7 5-5 7-3 2-1 3-2 6-2 2-1v-2l2-2h1l-2 4h1l2-2h1v1h1l2-2h5l4-3 7-2 5-1 2-2h2l2-2 9-3h3l5-2 7-3 2-1v1l5 1 2 1 1 1 1 1 4 2h2l5 3 4 1h5l6 6h1l1 1h3l4 2 1-1 1-2 7 2 2 1 3 1h5l1-3 4-2 2-2h2l3-1h1l2-1 2-5v-3l1-1 1-2h6l1 1 2 1 1 2 2 5 1 1 2 1 4 1h2l1 2 3 1 1 1 1 2 4 3v-1l-1-2-2-2 1-1h2l2 3-1-2h1l2 3v-2h1l1 1h1v-1l-2-1v-1l4 1v-1l-2-1h-4l-1-1-1-1 1-1 1-1h2v2l1 2 1-1-1-1v-2l1 1h1l-1-1v-1l1-1 3 1 1 1v1l2 3 2 2 2 3 1 2 4 9c1 2 6 4 7 5 1 2-3 5-2 7v1h1l1-3 3-6-8-6c-3-4 2-9-5-13l-2-6v-4l-1-3-2-1h-4v-1l-1-1-2 1-2 2h-2l-2 1h-3l-3-1-1-1-8-2-3-2-2-3-2-3-1 1-2-1-2-2-6-4-2 1h-3l-3 2-1 1 1 2-2 3v2l-1 2-3 5h-4l-4 1-7 1-1 1v-1l-4-3-2-2v-1h-1l-3-1-1 1-3-1-1-2v-1l-1-2-1-1h-1l-2-2-3-3 1-1 1 1 1-2-1-2-1 1-3 1h-1l-1 1v1h-2l-2 2-1 1h-5l-1-1h-1l-1 1h-2l-3-2-1-1h-1l-4-3-3-6-4-4-5-3-3-4-2-1v-3l2-3 4-2 4-4 2-1 4-3h2l3-3 4-1 1-1 2 1h3l3 1h1l1 1v3l1 3 2 1 3 3 2 2 1 4 3 3 2 1 2-1 2-2 1-3 1-2h11l3-1h3l3 2h8l1-1h4v1l3 4 4-1 3 1 4 2 2 1 2 2h1l4 3 2 4-1 1 2 3 4 4 2 3 4 2 1 1 2 1 2 1 1-1 1-1h1l2-2 1-1h1l1 1 2-1v2h3l1-1 1-1 1 1h1l1-2h1l1 1h1l1 1 2-2 2-1v-4l-2-3v-3l-1-1h-1v-1l-2-1-2-2-2-1-4-1-1 1v1h-1l-3-1-1-1-4-3-2 1h-2l-1-1-2 1-9-2-1-1-1-2-1-1-1-2-1-1h-3l-2-4-2-2-2-1h-1l-1-1v-3l1-1h1l4-1 1 1 8-5h5l3 2 1 1 7-1h4v-3l-2 1h-2l-1-1h-5l-1-3-1-1h-1l-1-1 1-2v-1l1-2h6l4 2 5 2 1 1h2l1-1 2 1h10l4-2 5-1 1-1 2-1 2-1 3-1 1-2 3-6 1-1-1-2v1l-2 2 1-3h-2v1h-2l-1 4-2 2-1 1-3 1-3 1-9 1h-3l-4-3-1-1-2-1-3-1-1-1h-3l-1-2h-1l-1-3-4-1-5-2-2 1-1-1-3 1-1-1h-2v-1h-1v-2l-2-3-1-3v-2l-2 1v-1l-1-2 1-3v-2l-1-3-2-2-1-2v-1h-5l-1-1h-4l-1 1-5 1-1 1h-1l-3 4h-1l-1-1v2l-1 1-1-1v-2l1-1-2-4v-4l2-2 2-1 1-1h4l2-1 5-2 5-2h4l2-1h1l-1 2 3 2 2 2 1-1 1-1v3h-1l1 1 1-1 1 1 3 1 5 3 2 2h2l1 1 4 3 7 3 1-1 2 3 1 2 1 1 2 1 3 3 2 3 3 3 6 2 1 1 1 1 4 1h3l3-1 1-1h1v1l1 1 1-2 1 1v3h2l2-2h1l-3 2 1 1v1l2-1 2-1h1v1l3 1 4 2h3l12-1 5-2 1 1h1v-1l2-1 2-3 2-1-1-2v-1l-4 2h-2l-7 3-7 1-2-2-6-2-5-1h-5l-3-1-1-1-5-3-2-1-2-2h-1l-2-1-5-1-6-3-4-1-3-4 2-1 1-1h-3l-2-2-3-2h-2l-3-2-1-1-3-3-3 1-1-1h-1l-1-1h-2l-3-1-2-1-1-2h-4v-1l2-1v-1l-1-3-1-2-4-5-1-1 1-2 1-1 2-4h1v-2l-2-2-1 1v1h-1l-1-2v-1l-1-3v-3l-1-3-1-1v-1l1-1 1-1h1l1-2h1l1-1h3l2 1 1 1 1 2-1 1-1-1h-2l1 1-2 1-4-1v1h1l-1 1 1 1 3-2h1l2 1 1 2v1l-1 1v1l-5 2-1-2-1 1 1 2h2l4-1 4-1-2-1v-1h1l1 1v-2l-1-1 1-5h1l3 1 1-3-5-3 6-3 4-6 1-2 18-20 1-2 3-4 2-2 3-2 6-7 6-8 2-5 2-3 1-1v-1l5-7 1-2 1-3 10-20 3-6 3-7 1-4 2-5 4-12v-1l1-1 1-2v-6l4-12 1-4 1-5 1-8 1-4v-6l1-6v-7l1-5v-1l1-5v-2l1-7 2-11 1-1v-1l1-1 2-4 3-13 2-7v-1l2-6v-6l1-14 1-2 1-1 1-1h2l3-1h3v2l1 1h1l1-1 1-1v1l1 1v1l-2 3v2l3 8 3 2 3 1 1 1 4 2h1l4-1v-1l6-2h1v-1l3-3 1-3 2-1 4-2h1l3 1 2-1h3l1 1 1 1-1 1 1 1 1 1 2 4v2l2 1v1l1 4 5 8v1l1 2-3 17 1 1 1 1 1 1 1 1v3l2 1 2 3 1 1h3l1-1 3-4h12l3 1v2h1l1 2v5l1 2v1l1 1v2l-3 2 1 1h1v1l-3 3v-1l-1-1v-1l-4 1-1 3v3l-1 2-8 6h-3v1l-3 2-5 1h-1v-2l-1-1h-1l-2-1h-2v-1h-2l-3 1-3-1h-1l-2 1-1 1-1 1-1 1 1 5v1l1 1-1 2 3 5v2l1 1 1 1v1l1 3 1 1v3l2 4 2 2 1 2-1 1v2l-1 1h-1l-1 1v3l1 2-1 1h-1l-4 1v1h3l-1 2 1 3h1l5 1 1 1-1 1-2 1v2l-2 3h-2l-3 4-1 1-2 3v1h-1v2h-1v1l-1-1-1-1h-1v1h-2l-1 2h-2l-1 1h1l2 1h3v3l2 1h5l1 1-1 1v1h7l1-1 2 1h2v1l1 1 3 1 3 2 2 3 2 1 2 1h3l5-1 1-1h5l1 1 2 1 4 1 2 1v1l1 1 1 2 1 2 2 1h2l2 1h2l2 1 2 1 1 1 3 3h4l4-1 1-1 3-1h1l4-1h4l2-1 2-2 2-3 1-4 2-4 1-3 1-1 3-2h1l2-2 1-3 1-1v-1h2l2-1 2-1 2-2h1l1-2h2l2-1 3-2 2-1h2l2-2h1l1-1 2-1 1-2 2-1 1-1v-1l2-1h1v-1l1-1 2-2 1-2 1-2v-1l1-1 1-1 1-2v-3l1-3 1-2 1-1 1-2-1-4-1-5-1-2-2-4v-1l-1-1-2-1h-1l-3-2h8l2-2-2 1h-1v-1l-1-1 1-1v-5l-2 1-9-1-6 1h-15l-2-1-1-1-1-3-4-5-1-1-3-4h-1v-1h-1l-1-1v-3l1-2v-23l1-3v-1l12-16 2-1h2l4-1h1v-1 1l-1-1-3-1h-6l-1-2-2-3h-1l-1 2-3 1h-2l-3 1-2 3-4 1h-2l-14-6h-4l-4 2-4-2-3-3-2-1h-1l-2-6 1-2 2-2 2-1h2l1-1 1-2-1-5-1-3 2-1v-4h1v-2l-3-8 1-5v-4l-2-1 2-2v-2l-2 1-1-1-2-3 1-2 3 1-1-3-2-5v-2l-1-3 1-2 3-4 1-3 2-8-1-4 1-1h2l-1-3 2-5 2-4 5-5 5-4 1-1h1l2-1 1-1 6-6v-1l2-2 5-4 3-2 9-2h2l2-1 2-1 7-4 5-3 4-1 2-1 4-2 2-2 6-1 3-3 2-1 6 1 7-3 4-2h4l5-2h10l1-1 8 1 1 1 3-2-1 4v2l1 1v4l1 2v4l1 2 2 2 1 1v-1l-2-2v-4l3 1v1l1 3 1-1v-2l1-1 1 1 1 1 1 1 1 1h1v-1l-1-1v-1l2-1 1-1v-1l-1 1h-2l-1-1 2-1h1l-1-2-2 2h-2l-1-1v-1l-2-1-2-1-1-1h3l-1-2-1-1-2-1v-1l1-1h3l1 2 2 2h3v-2l-2-1h-2l-1-1-2-1v-2l1 1v1l5-2h2l2-1 6 2 3 2 2 3 4-3 9-3 1-1 9-1 3-1h1l4-1 4 1 8-1 3-2 6-1 2-2 4-1 2-1 4-2 10-2 5-1 5 1 4 2 2-1 1-1 3 1v2l-2 2 1 1h4v-1l-2-1 1-2h1l6 5-1 2 1 3-1 3 1 2 2 2v4l2 10 4 3 4 4 5 1 2 1v1h2l1 1v1h1l2 1 9 2h1l3-2h1v1l-2 2 1 5-1 4 4 3 2 1h3l5 2h1l3 1h5l1 5q2 8-1 14l-2 3-1 4-1 5c-1 5 2 4 3 7v8l1 20 1 1-1 5-2 7-4 11-5 7-1 3-3 4-6 7-1 5c1 3-3 5-3 8l-1 3v16l-1 8-1 10 1 7c0 2-2 8-4 9-5 2-8-4-11-4l-1 2h-10q0-2-3-3l-1-1-4 1h-11c-4 0-4-2-9 0-3 1-6 6-8 6v1c4 5 1 6 0 11l8 6-1 1h-6l-1 3-5 1 2 5v12l1 2 8 6c4 5 14 1 18 2l1 2h1l1 1 7 2h2l6 1c2 0 5-5 6-7h1c2 1 4 10 5 12l3 3c5 3 5 2 6 9l1 7c-1 2-6 10-6 13-3 8-3 9 1 17l1 4q-4 3-10 3c-4 2-4 9-7 12-1 2-9 3-9 3l-3 5q-2 0-2 2c-2 3 0 7-3 9-4 2-16-1-19 1v1l-1 4h-1v5c-2 3-8 2-10 4l-1 4v4l1 1c7-1 6 0 11 3 4 3 7 3 10 8l3 3 1 7q-2 2-5 2l-2 8-7 5-1 2-5 2-5-3-1-2-5 3-12 3-6 3h-2l-4 3-4 2c-3 2 0 2-5 4h-2l-3-2h-2l-5-1-3-1v1l1 2 1 8h-8l1-4-8-2h-2l-2-4-4-3-2 1h-3q-5 2-9-1l-1-2-1-1-1-3-4-3-3 1-2 1h-3l-1 2 2 1q3 3 3 6c2 3 6 1 5 6v3l-15-5-5-3c-1 5-1 3-4 5l-5 5c-4 1-7-2-11 1v1l2 1h-1l-1 1v1c6 1 2 5 5 7l1 1 1 1v1l-1 1 1 2-5 5-1 1 1 3 5-1 10 7h-1l-1 1v10c1 4 7 5 10 6l5 1 1 1c-1 2-5 12-4 13l4 3 2 7 5 2 2 6 7 9v3l3 11-2 5 1 4-2 8v1l3 1v1l-1 1c-1 2 2 7 1 9l-5 5-2 3-3 1-2 4-4 7-1 4-5 5-5 4v1l2 3v2h-2l-1 1 1 5v5l2 4h1l4-1 2-2 8-4 3 3-6 2-2 1 3 2 2 1 1 2-3 2-6 3-5 1v1l-1 1-1 1v1l-2 1h-2l-2 4-3 3h-3l-3 3h-1l-2 5-3 1v5l-3 2-2 1-1-1-3-4-1-3-1-1-4 4-1 1-3 1 3 4-1 3 1 2 3 2v2l1 2v3l-2 2 1 1 5-2 3-2h2l2 2h4l2-1h1l4 1 1 1v1h-1l-2 4-1 1 1 1 1 1v4l1 1 6 1 1 1 4 1v4l-1 1v2l-1 4 2 2 1 2-1 1-1 1-1 4h-2l-2-1-1 1h-3l-1 1-1 3v1l1 3v3l-3 3h-2l-2-2-1 1-1 2 2 2h1l5 5 1 1v6l3 2v1l-1 4v2l1 1h1l2-2h1l1 1h8l1 2 1 3 5 8 1 1h1l1 3 1 2h2l1 1-1 1-3 2 1 2 2 1v1h1l2-1h3l3 2h2l5-1v3l-2 2-2 2v4l-1 1-2-1-1-1-1 3-3 2-1 2-4 3v4l1 1 1 1 1-1 1 2v1l-1 1 2 3 1 1v1h1l2 4 1 1 2-2h7l1 1h4l4 1 2 2v4l-1 1 1 1v1l1 1 5 3v4l-2 3v5l-4 6-1 2 4 3 1 2 1 1 5 4v7h-2l-5 3-2-2-1-1h-2l-1-1-1 1h-2l-1 2-1 1-1 3-1 2v2l1 2-3 3h-4l-1 1-4 1-1 1-3 1v3l-1 1-2 1h-2v1h-1v2l-1 1 1 1 1 1 1 1v5l1 3v2l-4-1h-1l-1 2-1-1-2 3 1 3-1 1h1l1 1 1 2-1 2h-1l-1 1-1 1 1 1h-1l-1 1v1l1 2-1 2-1 1 2 2-1 1h-2v5l1 1-1 2v1l1 1 1 2 1 2-1 3 1 1 2 2-2 2 1 1h1l1 1v1l-2 2 2 1v1l1 1h1l1 1h1l-1 4v1l2 3h3l1 1v1h3v2l1 2v3l1 2 1 1-1 2 1 1 1 3h1l2 2 1 2 2 1h2l1 1 1 2h2l1-1 2 5v4l1 1h1l1-1 1-2 4-1 7 10h3l2 1h1l2 1h1l2-3h1l1 1v1h1l1 1h3l1 2 1-2 1-1h1v2l-1 2-1 2-1 1h-1 1l1 2-1 2 1 2 1 2-1 1-2 1-1 2v1l1 2v1l2 2v2l-2-2h-1l-1 2 1 1v2l-2 2-2 3h-2l-3 4-1 1v1h-1l-2 3v1h2l1 1-1 3-1 4-2 4v1l-3 2-1 2-1 1h-1l-1 1-1 2 1 2v2l-3-1-1 2h1l2 3 1 1v3l-2 1v1l-2 2v2l2 8v3l-1 6 1 2h-2l-1-1-4-1-1-1-1-2h-4v-2h-1l-2-2v-3h-3l-1-1-2-1-1-1v1h-4l-2 1-1 1-3-1h-3l-2 1h-1l1 3h-1l-2 2-1-2-2-1-1 7h-1l-2 1-3 1h-7l-1 3v2l-2-1-2-1h-3l-2-1h-2l-1-2h-1l-1-4v-4l-2-1-3-2h-5l-3 1h-1l-1-1-3 1-2-2-1-2-1-2h-1l-1-2v-1l1-1-1-1 1-1-1-1h-1l-1 1h-2v-3h-1l-1-1h-2l-1-2h-1l-2-1h-2l-1 2v4l-2 1-1-1-1-1h-1l-1 1h-3l-5-2h-5l-3 1v1l-2 2-1 2 1 3-1 1v2h-2l-1-3-1-1-4-2-2-1-2 1-2 3-3 2-2 1h-5l-1 1v3l-2-2-1-2-4-3 1-1h1l2-2 1-1v-1l-1-2-3-2 2-5h-3l-2-6 1-2-8-7-2-1-1-1h-2l-2-2-1 1v2l-4 1-1 1-1 1-1-4v-3l2-3 2-2-2-4-1-1-1-1-4-3-3-3h-2l-2 2h-6l-1-2h-8v-5l-1-2h-1l-1 2h-1l-1-1h-2v-4l-5-9-2-1h-4v-1l-1-1h-3l-3-2-3-2-2-3v-1l-2-1-2-1h-1l-1 1-1-1h-1l-2 2v1l-4 1-3 1h-2l-3-2h-1l-1 1h-2v-1l1-1 1-5 2-1v-1l-2-3 1-3-3-1-1-5 2-1 1-2v-2l1-2 2-3v-2l-1-4v-2l-2-2-1-1-2-4-2-1h-1l-5-1h-1l-2-2 1-4 1-2h2l1-3v-2h1l-1-2 1-1-1-2 1-4 3-3v-2l-3-2 1-1v-3h2l1-2v-7h3l1 3h1v-3l-1-1 1-3v-3l2-2 2-2-2-2v-2l-1-1-3 1-4-2-1-1-2-1h-1v1l-2 3h-1l-1 1-5 3-2 3v3l-1 2-1 1h-2l-5 3-1 1-1 2-1 2v2l-2 2 1 1 3 1v1l-1 6-2 5v4l-1 1-3 1-2 1h-1l-4 1-1 1h-5l-3 1-1 3-2 1h-4l-1 2-1 1-2 3h-5l-1 1-4 1-3 1-1-1-1-1-5-1h-3l-1-2h-6l-1-1-2-2h-1l-3-1h-3l-2 1h-6l-3 2h-4l-2 1-1-1 1-3-2-1h-1l-1-1-1-1-3 1h-1v-2l2-3 1-1-2-2h-1l-1-3v-5l3-5 1-1h2l2 1 1-1 1-2 5-3 1-1v-2l-1-2-2-2-2-2v-2l-1-1 1-2-1-2v-1l1-1-2-1h-5l-2 1-1 1h-2l-1-2 1-3v-2l3-3v-3l-1-1 1-2 1-2 1-2-2-5v-1h3l1-2 1-2 5-4 1-2v-4l-2-2-1-1h-2l-2-1v-2h-3l-1 1v2l3 2v2l-3 1h-2l-1-1v-2l-1-1h-1v-4l-1-1v-3l-1-1-2-2-2-1-1 1-2-4-1-1h-2l-1-3-2-1-1-1v-1l-1-1-1-1h-1l-1 2h-2l-2 1-1 1-2-1-1 1-1-1-2 1h-1l-3 3-5 1-3-1v-2h-3l-4-4-5 1v1h-1l-1-1v-1h-7l-3 2v-1h-2l-2 3-1 4v4l-3-2h-1l1 3h-1l-2-1-2-2v-1l-1-2-1-3-1-3-1-3-1-2 1-3 2-5v-5l-1-3v-2l-1-2-1-1v-4l-1-2h-1l-3-2v-3l-4-5h-1l-2 2h-2l-1-2h-4l-3 1-4 1-3 1-1-3 1-2 4-4-2-2-3-1-4-1-2 4-1 3h-4l-1 1-2 1-2-1-2 1-1 2h-2l-4-3-3-1-8-5-1-2-2-2v-3l1-2-1-1 1-1-1-2v-1l1-1-1-3v-4l-1-1v-2l-2-3-1-2-1-3-1-1 1-1-1-2-1-3 1-2v-1l4-2-2-3v-3l-2-3-1-1h-4l-1-2-2-1 1-2-1-2-2-1-1-2v-1l-1-1-2-2-3-6v-1l-2-2h-1l-1 1h-2l-1 1-4 3h-2l-3-1h-2l-4 2h-3v1l-2 1-2 1-1 1-2 2h-4l-2 2v3l-1 1h-1v2l-1 3v2l-1 1h-3v1l-1-1-1-1h-3l-1-1-1-2-1-2-2-1-4 2h-1l-4-2-1-3v-3l-1-2-3-1v-1l-1-3-2-3-3-2v-2l-2-1 1-3-1-1-1-1-2-1-3 1h-1l-1-2-1-1h-1l-2 2-1 1h-3l-1-5-1-2-1-3h-3l2-5-1-3 1-1-1-2 1-4-1-2v-2h-2l-1-1 1-2 4-4v-1l2-2-1-4-2-2v-1l-1-3v-2l-4-2h-1l-1-1-1-4 1-2-2-11v-2l-1-1v-1l-1-2v-1z" clip-path="url(#c)"/>
  <path fill="#e0e0e0" d="m0 773 4-1 3-1 3-1h3l12-4v1l2-1 2 1h3l1 1h1l2-1 1-1h1l3-1h1l8-3 2-1 4-2 1-1 2-1h1l3-1 1 2v1l1 2v1l1 1v2l2 11-1 2 1 4 1 1h1l4 2v2l1 3v1l2 2 1 4-2 2v1l-4 4-1 2 1 1h2v2l1 2-1 4 1 2-1 1 1 3-2 5h3l1 3 1 2 1 5h3l1-1 2-2h1l1 1 1 2h1l3-1 2 1 1 1 1 1-1 3 2 1v2l3 2 2 3 1 3v1l3 1 1 2v3l1 3 4 2h1l4-2 2 1 1 2 1 2 1 1h3l1 1 1 1v-1h3l1-1v-2l1-3v-2h1l1-1v-3l2-2h4l2-2 1-1 2-1 2-1v-1h3l4-2h2l3 1h2l4-3 1-1h2l1-1h1l2 2v1l3 6 2 2 1 1v1l1 2 2 1 1 2-1 2 2 1 1 2h4l1 1 2 3v3l2 3-4 2v1l-1 2 1 3 1 2-1 1 1 1 1 3 1 2 2 3v2l1 1v4l1 3-1 1v1l1 2-1 1 1 1-1 2v3l2 2 1 2 8 5 3 1 4 3h1l2-2 2-1 2 1 2-1 1-1h4l1-3 2-4 4 1 3 1 2 2-4 4-1 2 1 3 3-1 4-1 3-1h4l1 2h2l2-2h1l4 5v3l3 2h1l1 2v4l1 1 1 2v2l1 3v5l-2 5-1 3 1 2 1 3 1 3 1 3 1 2v1l2 2 2 1h1l-1-3h1l3 2v-4l1-4 2-3h2v1l3-2h7v1l1 1h1v-1l5-1 4 4h3v2l3 1 5-1 3-3h1l2-1 1 1 1-1 2 1 1-1 2-1h2l1-2h1l1 1 1 1v1l1 1 2 1 1 3h2l1 1 1 4 2-1 2 1 2 2 1 1v3l1 1v4h1l1 1v2l1 1h2l3-1v-2l-3-2v-2l1-1h3v2l2 1h2l1 1 2 2v4l-1 2-5 4-1 2-1 2h-3v1l2 5-1 2-1 2-1 2 1 1v3l-3 3v2l-1 3 1 2h2l1-1 2-1h5l2 1-1 1v1l1 2-1 2 1 1v2l2 2 2 2 1 2v2l-1 1-5 3-1 2-1 1-2-1h-2l-1 1-3 5v5l1 3h1l2 2-1 1-2 3v2h1l3-1 1 1 1 1h1l2 1-1 3 1 1 2-1h4l3-2h6l2-1h3l3 1h1l2 2 1 1h6l1 2h3l5 1 1 1 1 1 3-1 4-1 1-1h5l2-3 1-1 1-2h4l2-1 1-3 3-1h5l1-1 4-1h1l2-1 3-1 1-1v-4l2-5 1-6v-1l-3-1-1-1 2-2v-2l1-2 1-2 1-1 5-3h2l1-1 1-2v-3l2-3 5-3 1-1h1l2-3v-1h1l2 1 1 1 4 2 3-1 1 1v2l2 2-2 2-2 2v3l-1 3 1 1v3h-1l-1-3h-3v7l-1 2h-2v3l-1 1 3 2v2l-3 3-1 4 1 2-1 1 1 2h-1v2l-1 3h-2l-1 2-1 4 2 2h1l5 1h1l2 1 2 4 1 1 2 2v2l1 4v2l-2 3-1 2v2l-1 2-2 1 1 5 3 1-1 3 2 3v1l-2 1-1 5-1 1v1h2l1-1h1l3 2h2l3-1 4-1v-1l2-2h1l1 1 1-1h1l2 1 2 1v1l2 3 3 2 3 2h3l1 1v1h4l2 1 5 9v4h2l1 1h1l1-2h1l1 2v5h8l1 2h6l2-2h2l3 3 4 3 1 1 1 1 2 4-2 2-2 3v3l1 4 1-1 1-1 4-1v-2l1-1 2 2h2l1 1 2 1 8 7-1 2 2 6h3l-2 5 3 2 1 2v1l-1 1-2 2h-1l-1 1 4 3 1 2 2 2v-3l1-1h5l2-1 3-2 2-3 2-1 2 1 4 2 1 1 1 3h2v-2l1-1-1-3 1-2 2-2v-1l3-1h5l5 2h3l1-1h1l1 1 1 1 2-1v-4l1-2h2l2 1h1l1 2h2l1 1h1v3h2l1-1h1l1 1-1 1 1 1-1 1v1l1 2h1l1 2 1 2 2 2 3-1 1 1h1l3-1h5l3 2 2 1v4l1 4h1l1 2h2l2 1h3l2 1 2 1v-2l1-3h7l3-1 2-1h1l1-7 2 1 1 2 2-2h1l-1-3h1l2-1h3l3 1 1-1 2-1h4v-1l1 1 2 1 1 1h3v3l2 2 1-1v3h4l1 1 1 2 4 1 1 1h2l-1-2 1-6v-3l-2-8v-2l2-2v-1l2-1v-3l-1-1-2-3h-1l1-2 3 1v-2l-1-2 1-2 1-1h1l1-1 1-2 3-2v-1l2-4 1-4 1-3-1-1h-2v-1l2-3h1v-1l1-1 3-4h2l2-3 2-2v-2l-1-1 1-2h1l2 2v-2l-2-2v-1l-1-2v-1l1-2 2-2h1l-1-2-1-2 1-2-1-2h-1 1l1-1 1-2 1-2v-2h-1l-1 1-1 2-1-2h-3l-1-1h-1v-1l-1-1h-1l-2 3h-1l-2-1h-1l-2-1h-3l-7-10-4 1-1 2-1 1h-1l-1-1v-4l-2-5-1 1h-2l-1-2-1-1h-2l-2-1-1-2-2-2h-1l-1-3-1-1 1-2-1-1-1-2v-3l-1-2v-2h-3v-1l-1-1h-3l-2-3v-1l1-4h-1l-1-1h-1l-1-1v-1l-2-1 2-2v-1l-1-1h-1l-1-1 2-2-2-2-1-1 1-3-1-2-1-2-1-1v-1l1-2-1-1v-5h2l1-1-2-2 1-1 1-2-1-2v-1l1-1h1l-1-1 1-1 1-1h1l1-2-1-3h-2l1-1-1-3 2-3 1 1 1-2h1l4 1v-2l-1-3v-5l-1-1-1-1-1-1 1-1v-2h1v-1h2l2-1 1-1v-3l3-1 1-1 4-1 1-1h4l3-3-1-2v-2l1-2 1-3 1-1 1-2h2l1-1 1 1h2l1 1 2 2 5-3h2v-7l-5-4-1-1-1-2-4-3 1-2 4-6v-5l2-3v-4l-5-3-1-1v-1l-1-1 1-1v-4l-2-2-4-1h-4l-1-1h-7l-2 2-1-1-2-4h-1v-1l-1-1-2-3 1-1v-1l-1-2-1 1-1-1-1-1v-4l4-3 1-2 3-2 1-3 1 1 2 1 1-1v-4l2-2 2-2v-3l-5 1h-2l-3-2h-3l-2 1h-1v-1l-2-1-1-2 3-2 1-1-1-1h-2l-1-2-1-3h-1l-1-1-5-8-1-3-1-2h-8l-1-1h-1l-2 2h-1l-1-1v-2l1-4v-1l-3-2v-6l-1-1-5-5h-1l-2-2 1-2 1-1 2 2h2l3-3v-3l-1-3v-1l1-3 1-1h3l1-1 2 1h2l1-4 1-1 1-1-1-2-2-2 1-4v-2l1-1v-4l-4-1-1-1-6-1-1-1v-4l-1-1-1-1 1-1 2-4h1v-1l-1-1-4-1h-1l-2 1h-4l-2-2h-2l-3 2-5 2-1-1 2-2v-3l-1-2v-2l-3-2-1-2 1-3-3-4 3-1 1-1 4-4 1 1 1 3 3 4 1 1 2-1 3-2v-5l3-1 2-5h1l3-3h3l3-3 2-4h2l2-1v-1l1-1 1-1v-1l5-1 6-3 3-2-1-2-2-1-3-2 2-1 6-2-3-3-8 4-2 2-4 1h-1l-2-4v-5l-1-5 1-1h2v-2l-2-3v-1l5-4 5-5 1-4 4-7 2-4 3-1 2-3 5-5c1-2-2-7-1-9l1-1v-1l-3-1v-1l2-8-1-4 2-5-3-11v-3l-7-9-2-6-5-2-2-7-4-3c-1-1 3-11 4-13l-1-1-5-1c-3-1-9-2-10-6v-10l1-1h1l-10-7-5 1-1-3 1-1 5-5-1-2 1-1v-1l-1-1-1-1c-3-2 1-6-5-7v-1l1-1h1l-2-1v-1c4-3 7 0 11-1l5-5c3-2 3 0 4-5l5 3 15 5v-3c1-5-3-3-5-6q0-3-3-6l-2-1 1-2h3l2-1 3-1 4 3 1 3 1 1 1 2q4 3 9 1h3l2-1 4 3 2 4h2l8 2-1 4h8l-1-8-1-2v-1l3 1 5 1h2l3 2h2c5-2 2-2 5-4l4-2 4-3h2l6-3 12-3 5-3 1 2 5 3 5-2 1-2 7-5 2-8q3 0 5-2l-1-7-3-3c-3-5-6-5-10-8-5-3-4-4-11-3l-1-1v-4l1-4c2-2 8-1 10-4v-5h1l1-4v-1c3-2 15 1 19-1 3-2 1-6 3-9q0-2 2-2l3-5s8-1 9-3c3-3 3-10 7-12q6 0 10-3l-1-4c-4-8-4-9-1-17 0-3 5-11 6-14l-1-6c-1-7-1-6-6-9l-3-3c-1-2-3-11-5-12h-1c-1 2-4 7-6 7l-6-1h-2l-7-2-1-1h-1l-1-2c-4-2-14 3-18-2l-8-6-1-2v-12l-2-5 5-1 1-3h6l1-1-8-6c1-5 4-6 0-11v-1c2 0 5-5 8-6 5-2 5 0 9 0h11l4-1 1 1 3 3h10l1-2c3 0 6 6 11 4 2-1 4-7 4-9l-1-7 1-10 1-8v-16l1-3c0-3 4-5 3-8l1-5 6-7 3-4 1-3 5-7 4-11 2-7 1-5-1-1-1-20v-8c-1-3-4-2-3-7l1-5 1-4 2-3q3-6 1-14l-1-5 1-1q4-4 4-10l-1-4 1-2 2-4h15l4 4 2 1q-1-4-4-6-5-2-11-2l-5-2-5-1h-4l-4-1q-5 2-11 0c-3 0-10 2-13 0l-1-1v-1l-4-5-1-5v-3l-1-4 3-16 1-6q0-2 2-3l2-6v-1l-1-2-1-3q-2-1 1-2l3 2 1 1q1-1 2 1h3l3-2 2-3 1-2-2-1-1-2q-4 0-5-4c-1-7 6-7 10-10v-1l3-3 2-3 2-3 6-3 3-4 9-3 2-2 9-1 10 1 10-1 4 1 4 2v1298H0z" clip-path="url(#d)"/>
  <path fill="none" stroke="#0978ab" stroke-miterlimit="3.9" stroke-width="1.4" d="M192 1076v-2q-1-2-6-2l-2-3-3-1v-10l2-6q2 0 3-3 4-2 4-6h-5l-2-4h-4q-2-2-1-5v-3l2-6h3l3-6 4-2 4-7 5-5v-7l3-5 4-7 5-3c15-10 13 1 20-2q5-3 5-10l6-12 3-3 1-1 1-3q5-3 5-8-1-3-4-2l-2-2q-3 1-4-1l-2-3-4-3-4-4-5-1-5-5 2-8-1-3 1-6q-3-5-9-9l-2-5-3-4-2-8 1-3v-2l-2-4 3-3v-1l1-3 1-1c4-2 3 0 6-5l2-1 4-2 6-5 2-2 3-4 4-2 2-3 3-2 1-1 2-2 2 1 3-3 4-3v-1l3-6v-3l3-4q6 0 7-6l-5-5-1-8h5l2-3 2-1 4-6 1-4 2 1 2-3-1-2q1-3-1-4c1-5 7-7 10-4l-1 7 6 6c6 2 14-9 21-5l4 2 2-4h1l1 1 3 4 2-1 5-4 1-3 1-3 1-2q3-3 7-1l1 3q3 2 5 0c2-2 0-5 4-5l2 1v1l1 2 4 4v-1c2-2-1-4 2-7v-1c-3-1-1-4-2-6l-3-2 1-2 3-3 3-4 6 1 7-1 7-1q4-3 3-10v-10l2-3q6 1 9-5l1-4-1-1q-5 0-9-2l-3-3-4-1m313-178-3-8-4-2-5-4-3-7-3-2-1-2-1-2c-2 0-4-4-7-4l-4 4c-4 1-8-2-11-1l-4 4h-1l-1-2q-3-2-6-1l-2 1-5 1-5 2h-2l-4 3h-3l-6-2-5-2-5-3-3-1-4-3-2-1h-8l-3 4-5 1-2-2q-4-1-6 1l-3 4-2 1-3-2q-4 0-6-2-2-3-6-3-2 6-9 4l-2-1q-2 1-5-2l-3-6-3-1-4-1-1 1-9 7-1 1-5-2q-4 0-6 4h-1l-4-1c-2 2-1 5-5 6l-6 2q-4-2-8-1c-4 0-3 2-6 4q-3 2-7 2l-4 4-3 2-5 1-2 2h-13l-5-2h-3v-1l-4-1-4 1q-2-1-2-4h-2l-6 4h-8l-5 1h-7l-2 1h-7l-2-1-7-3-5-1-3-4v-1l-2-2-4-1-7-7-9-6" clip-path="url(#e)" clip-rule="evenodd"/>
  <path fill="none" stroke="#0978ab" stroke-miterlimit="3.9" stroke-width="1.4" d="m666 323 6 5 4 6h-1l2 1c6 1 2 7 5 7 3 1 7-4 10-4v6h3c5 2 4 3 5 7l6 5 2 8 2 2 1 2 3 4v2l-2 4-1 4-8 3c0 1 5 4 5 6 0 4-5 3 0 11v2l1 3 3 9 6 5 1 3c1 2 7 6 4 9l-5 2v1c1 2 6 3 6 6l-2 3 1 7v6l3 1 1 1v3l-6 3-2 4-3 2-2 3-4 5v1q1 2 4 1l3-2h1q1 5-4 6h-1l-1 4q-2 3-5 4h-4l-1-5q-3-2-5 1v1l3 2-2 2c-4 1-6-6-8 2l-3 1-2 2q-4 0-5 3l-1 3v1m281-87h-5l-2-7q-4-3-3-8l-1-2h-3q-2-3-4-2l-3-3v-1q-2 2-4 1-2-4-1-6l-2-3v-2l2-2v-2h-1l-1 1v-1l1-3-2 1-1-1 1-1v-1q-2-2-1-4v-3q3-2 0-5l-1-3-1-2v-5c-4 0-6-6-5-9l2-2v-1q-2-2-1-3l-1-2q-2 0-3-2v-2l-1-1 1-2-1-1 1-1v-1l-1-1v-1l-1-2-1-1v-3l-2-3v-1l2-1 1-1-1-1c2-4-2-5 0-8l-1-4 2-1v-2q2-1 1-4l1-1 3-3v-1l-3-4-2-9-1-6v-6l-1-1c1-1 5-4 1-6l-2-1h-1l1-2 4-1 5-7 1-1 1-3c0-1 3-4 1-6h-1q-2-6-1-10l-1-7v-5l1-1v-6l2-2 1-4 1-2-1-7v-2l-1-3q-3-1-5-4l1-6v-4l7-3 2 1q3-1 5-4 1-2-1-4l2-4-1-8 7-4 1-5c0-3 4-4 3-7q-3-1-6-6v-11l-6-3M479 1304q-3-3-3-7l1-1 2 1q2-2 0-5l1-2-1-2v-1c1-2 6-2 6-5v-2l-1-3h-1l-6-4c-5 0-9 3-12 1l-1-1 2-4-2-3-2-4-2-4-1-1-1-4-1-2-1-1-1-8c0-3-3-3-4-9-3-2-1-1-3-4l-3-1-1-1 1-3v-1l-4-1-4 2-4 1q-5-1-6-3l-3-2-2-1-2-1h-2c-3 1-3 5-7 4l-6-2q-4 1-9-1l-5-4q-2 2-5 1l-7-3-1-1c-3-1-11-2-13 0l-1 3-2 1-4 2-3 3-6 2-4 2h-1q1 4-3 6l1 2-7 2c-4 3-2 7-4 8l-2 1q-4-5-9-6l-6 4c-2 2 0 3-4 4q-3 2-6-1l-6 1h-4l-4 5-1 2h-4c-4 6-6-1-9-1h-6l-3-2q-2-1-5 1l-3-3c-4-1-3 5-9-1h-7l-2 1-6-2-4 2-2 2-3 2-4 4h-6q-2-6-9-3h-1l-1-3-1-1h-2l-4 2h-6q-5-3-12-3l-2-2q-2-1-5 1l-6-1-3 1-8 1-4-4-6 1-4-1h-3l-8-2-1-4-3 1-4-2h-6c-4 1-3 3-5 5l-4 2-5 12v5l-4 2c-2 3-2 8-6 7h-6c-3 0-6-4-9-2l-3 7h-8q-7 0-10 4l-1 2-3 3-2 3-5 4-2 4-4 4-1 3-4 2m353-229-7 1-9-1-8 3h-4l-3 1-5 1h-3l-3 2-1 6-4 2-1 1v3h-2c-3-1 0-3-2-5h-2l-1 2-3-1-3 3c-2 1-7-1-8 2l-3 1-3 2-6 2-1-2h-2l-3 1-3-1-3 1-3-1-2 1-2-1-3 1-5 2h-5l-2 2h-5l-5 1-2-2h-2l-4-4v-5l-3 1h-3c-4 4-1 9-6 11v3l-5 4-6 9-2 3v4l-2 1-3 4-6 3-3 1v2l-2 5-3 5v7c1 4 6 5 4 11l-1 3-2 2-3 4-1 2c-3 1-10 1-11 4v2l-3 2-4 2h-1l-3-1-3 3-5 2-4 3c-3 1-12 4-14 1l-1-1-3 3-2 1q-2 3-5 4l-4-3h-1l-2 2-1 2-1 1q-2 4 0 6l-3 4 2 2-1 2-1 1q-3 2-6-1h-3l-1 7-2 2-2-1h-1v2l-2 3q1 2-2 5m100-137q-1 2-4 1l-4 3h-6v1l-1 3-1 2-2 8-5 2-1 1-1 1-5 4-2 1-2 4-2 5-3 3-1 1-3 1q0 3-3 6-4 1-9-2h-2l-2-1-6 1-2-1c-4-2-3-3-6-5l-3-2-3-6-1-1v-3l-1-3-4-1q-2-4-1-7l-1-7c0-2 3-9 2-12l-4-3-4-5 1-3-1-1h-1l-2 2h-4l-5-1q-2-3-5-4l-1 1c-1 4 3 5 4 8h-1l-7-2-4 5-5-2-1 1-1 5h-2q-1-4-4-3c-2 1 0 5-2 7h-2l-3-3-6 1-5-3-8-1-5 5c-4 2-5-2-9-1l-2 6H26l-6-3-3-1-6-4-7-1-4-2v-1m505-711-6-3h-7q-3-2-3-5l-7-5-6-1-20-4c-3-1-5-7-9-8h-2l-5-1-9-1M0 895l5-3 4-3 9-1h3q2-2 3-1l2 1 6-2 3 1 2-1c1 0 9-2 10-1 2 0 3 5 8 4l3-2h1l1 1 2 3h1l5-2 8-1 4-2 1 1h3l2 1 2-2 4 1 7-1 2-3q1-3 5-4h3l4-5 1 1h1c3-1 4-6 6-6l2 2h6l4-2 30-26 4-1h6l6-1 2-2 4-1 4-4 4-3 4-4 2-1 1-1 4-8q3-1 4-5l4-1 2 1 1-3q6 0 8-3l-1-3 1-1h2l2-4 1-3 1-1h2v-1l-1-3q2-4 7-3l3 1 3-1h2l3-2c2-1 6 2 7-3l-1-1v-2l2-1v-1l1-4 4 3h1l1-5h1l2 2q3 0 5-3h3l2-3 1-1q1 2 5 3m205-223-7-1h-7l-7 2-6-3q-7-1-14 3l-7 4h-1q-6-2-9-5l-4-4h-4l-6-1-7 1-4-1c-4-5-5-2-9-2-3 0-7-6-8-8l-2-8m339 781 1-5-3-3 1-3-1-2q3-2 2-5l-2-2v-3l-4-4v-1l2-4-1-3v-3l-2-5 1-1 7-3 1-1q-1-3 1-4 2 1 5-2h2l1-2 4-3v-2l4-3 1 1h1q2 0 2-5l1-3h1c2-1 2 2 4 1l1-1 1-2v-4l1-6v-3l-2-8v-2l2-2v-1l2-1v-3l-1-1-2-3h-1l1-2 3 1v-2l-1-2 1-2 1-1h1l1-1 1-2 3-2v-1l2-4 1-4 1-3-1-1h-2v-1l2-3h1v-1l1-1 3-4h2l2-3 4 1c7-2 5 1 9 1h2l1-1q5-1 8-4c2-2 1-8 2-10l6-5 3-1c8-3 1-5 4-9q1-3 4-4l2 1 2 1h4c4 4 4 4 9 6l4-1h1v1h1l1-1c0-2-4-9-3-11l2-1q3-2 4-1c2 1 1 9 6 7q1-3-2-6l1-7-1-3q2-4 6-4v6h1l2-2v-6c2-4 10-8 15-7l6 2c4-1 0-5-1-7l-3-4-6-3v-5c4-4 9 3 12 3l4-5h2v8q2 2 4 1c4-2-1-8-2-11l1-6-2-8v-1l3-1c6 0 4 10 9 9v-7c-2-3-9-2-8-7l1-8v-1l-3-2v-1l1-1 12 7 2-1-2-5 1-2 3 1h3l1-1-2-5 2-4-1-1q-2-2-5 1l-5 1q-2-3 1-6l3-1 2-2 5 1 8-1h1l5-4h2q8 1 9-6l1-2 5-4 6-1q3-2 1-5l1-2-1-2 2-4v-4l1-2c0-2 0-8 3-8l3 3m-386 320 1-2-2-1-5-2q-4 2-7-1l1-3c3-2 6 0 6-4l-3-4-2-2-2-3-3-2-2-6h-1l-1-7h-4c-2 1-8-2-8-5v-8l-1-7 2-1v-7l-1-4 2-8-2-4-3-9v-4l-3-5-3-1-3 3-4 1-1-1v-5l-1-1-2 1h-1v-2c0-2 5-6 5-8q1-5-5-7l-5-2c-3-2-2-6-5-7l-5-2q-1-3-4-4l-4-4c-3-2-1-6-2-7l-5-4 1-5-2-1c-4 1-1 10-1 13l-6 1-4-2c-4 2-3 1-6 1h-4l-2-6v-1l1-3-1-2v-1q-2-5-8-5l-6-1-4 1-1-1 1-2 2-1q2 0 3 2h5v-1l-2-3v-1l1-1 3 2h1l1-2c2-6-3-6-2-9 0-3 2-11 6-7h1c2-3-4-5-5-6h-3v-1q1-3-1-7v1l-2 3h-1l-3-6v-6h-1l-2 3-1-1-1-7h-1l-2 2-1 1v-1h-1l1-3h-1l-3 1-1-1 1-2q5 0 6-5v-5l1-1h2l1-1 1 1 1-1h3l1-3h-2l-1-2v-2l4-1 2-3q-2-2-1-5v-7l1-5-1-3q3-2 6-1l1-1c0-2 2-7 5-4l-1 6h2l2-1c3-3-2-7 0-10 2-4 4 0 6-3l-2-5v-7l-1-6 1-3h2l4 4h1l3-6h3v-6l4-1c1-3-4-10-4-13l1-5-1-1q-4-3-5-9l-2-2-1-1v-1l3-1 1-1v-5l-1-3 1-3q3-4 0-9-3-3-3-7l3-3 8-2c3-1 4-5 8-4l1 1 3 3h3c1-1 3-7 6-8l7 1q6-1 9-4l3-1 2-1h4q2-3 5-4l5 3 5-5h5l5 1q4-3 6-8l2-1 4-2c7-4 8-5 17-6l2-1 3-5c4-2 8 2 11 1 3-2 1-9 3-11 3-3 7-1 11-3l2-7 4-3 1-5 3-5q1-3-1-6l-1-4-1-1v-1l3-5v-1l-1-4 1-2 1-2v-16l-1-1-2-3-1-2v-1l1-1v-3l1-1h1l3-1h1l1-5 3-4 1-3h1v-1l-1-2-4 1-1-1 2-4 1-1 4-3 1-3v-1l1-2 1-5-3-1v-2l2-3v-2l1-2 1-1v1l2 1v-1l1-2v-1l1-1v-1l-1-3v-1l1-1h5v-2l1-1h-1l-3-1v-5h1l3-1 1-1 1-2 2-1 1-1h3l2-3 6-2 5 1 1-2v-1l-4-2v-1q3-2 6-1 3-1 3-4l-1-4 4-4 3-6-1-3 3-1 5-7 7-4 4-7 2-6c0-1 5-3 7-7 3-5-5-9-1-14v-6l4-6-1-6v-7l-6-4-4-8-7-1-2-2q-4-1-5-5v-3l-3-5v-3l-3-6-5-3 1-6-3-1-1-1 1-4-2-3v-2q-1-4-5-4l-1-1h-4l-3-1-1-2c-1-2 1-6-2-8q-6-2-13 1h-4l-1 1c-4 0-5-5-7-7l-5-1-2-3q-6 0-8-6l-1-2-9-4h-3l-5 1-4 2c-3 0-5-5-8-3l-2 2q-4 5-9 3l-2-2h-1l-4 3q-3 3-4 8t-3 9l-5 1-4 2h-3q-2 2-5 2l-3-2h-10l-6 1h-7l-12 8c-6 0-12-4-19-4l-7 1h-8l-6 2-9-3c-7-2-5-1-11-1-5 0-14 3-14 3" clip-path="url(#f)" clip-rule="evenodd"/>
  <path fill="none" stroke="#0978ab" stroke-miterlimit="3.9" stroke-width="1.4" d="M960 953h-2q-5-1-8-6l-1-1c-3-2-5 1-9-3l-9-11-3-3-2-5-2-3-1-4-4-8c-4-5-9-3-11-8l1-10q-1-8-5-14l-1-3-2-3-3-4-6-3-4-9c-3-5-7-5-10-8q-3-3-2-8c-2-5-9-4-9-9v-3q3-1 5-4l8-5c1-6-10-3-12-6q-3-3-4-8v-7q5-1 5-6l-1-2-5-5c0-3 3-6 1-9l-3-3-1-1-2-1-5-5q-6-1-9-4v-1l-1-1 4-3 2-5-5-4c-3-3 1-7-1-11-4-1-3 5-8 5l-1-2q2-4-1-8c-2-3-9 1-11-2l-1-6-1-6 1-1 2 1c1 0 3 3 5 1v-5c-5-7-13-4-11-11l2-3 3-4q0-7-7-10l-6-2-1-4c1-5 8-4 12-6l2-2 1-3c1-6-5-7-5-12l2-8-7-3c-2-5 6-5 7-8v-2l-8-9c-1-3 5-5 0-9s-10 5-15 1v-7l-1-2v-7l2-7q-4-4-10-3l-3-1q-5 0-8-2l-1-2-5-8c-1-2-6-3-6-4-1-3 3-8-1-10l-13-2c-3-3-2-13-11-17l-2-1-7-2-6-1-3-1-3-1-15-5-5-3-2-1-1-1-2-2-4-1c-4 2-3 8-8 8l-3-2q-1-2-5-3h-2c-5 2-4 6-9 6l-8-5h-3l-3-3-15-4-4-1-2-1h-20l-10 2-9 2c-6 3-4 6-7 11l-6 6-3 5-1 1c-5 1-5-6-10-6-4 0-11 5-16 5l-7-2-7 1-7-4q-5 0-9 3l-20-3h-2l-2 1c-4 1-8 6-12 7h-10l-4 2q-5 3-6 8l-7 8-12 5" clip-path="url(#g)" clip-rule="evenodd"/>
  <path fill="none" stroke="#646464" stroke-linejoin="round" stroke-miterlimit="2" stroke-width="2" d="m369 680-8 11-14 13-6 4h-1l-2 1-2 2h-5l-6 2-1 2-3 3-4 2h-2l-2-2h-1l-2 4h-5v-1l1-1v-3l-1-1-1 1-1 2-2 1-3 1-7-1h-1l-2-1v-9l1-2-1-2-2-1-2 1-2-2-3-1h-5l-4-2-6-1-1-1h-2l-1-1-6-3-2-1-1 1v4l-1-1-2-1-1-1-2 2-2 1-3-2h-1v1l2 12h-2l-4 1h-5l-2 1-2-1h-2l-1-1-1-2-1-1-3-3-4-4v-1l-3-3v-1l1-1v1l1-1-2-2v-2l3-4 1-2-1-2-1-2-1-6m608 630 1-2-1-3-1-1h-1v1l-2 1h-1l-1-1-1-5v-5l-1-1h-3v-1l1-3v-3l-3-1-2-3-1-1-2-1-2-1-4-4-1-1 1-2v-1l-2-1-2-2v-5h1l2 2 2-2v-2l-2-3v-3h-3l-1-1-3-3-1-1v-3l1-1 1-1-2-4h-4l-3-4-3-1-2-2h-3l-3-2-3-2h-1l-3 2-2 1h-2m99 76c0-5-6-3-6-3h-2l-1-1-3-1-2-1-1 2-1 1h-1l3 3" clip-path="url(#h)" clip-rule="evenodd"/>
  <path fill="#66cc66" fill-rule="evenodd" stroke="#0978ab" stroke-miterlimit="2" stroke-width="1.4" d="m349 678-1-1 1-1 3 1v1z" clip-path="url(#i)" clip-rule="evenodd"/>
  <path fill="none" stroke="#646464" stroke-linejoin="round" stroke-miterlimit="2" stroke-width="2" d="m503 650-5 7-6-1 1-8z" clip-path="url(#j)" clip-rule="evenodd"/>
  <path fill="#66cc66" stroke="#0978ab" stroke-miterlimit="3.9" stroke-width="1.4" d="m311 559-1-1 2-1 1-2 1-2 1 1 2 2 4 2h-1l-3-1-3 1zm4 9v-2l1-1h4v1l-2 1zm-3 1h-1l-1-1 1-1h1l2 2zm17 3h-1l-2-4-1-2-2-2 1-1h3v3l1 2 1 1 1 2zm56 0h-1l-4-3-4-3-1-1v-1h1l15 5v1l-1 1-3 1zm6 3h-2l-1-1v-1h1z" clip-path="url(#k)"/>
  <path fill="none" stroke="#0978ab" stroke-miterlimit="3.9" stroke-width="1.4" d="m277 592 1 1-2 1-1-1h1z" clip-path="url(#l)"/>
  <path fill="#66cc66" stroke="#0978ab" stroke-miterlimit="3.9" stroke-width="1.4" d="m275 596 1 1v1l-2 2h-2l-1 1-1 1-1 2v-2l1-1zm26-36v2h1l1 1h1l-1 2-4-2h-2l-1 2v3l2 1 7-2 2 1 4 3 2-1h9l2 2 1 3 1 1h1l1 3 2 4 1 1h4l5 2 1 2h4l1 1v1l-1 2v2l-1 1-2 1-4 5-1-1h-3l-3 2-4 1-5 2-3-2-2-2-1-2-1-1-1 2-1-1-1 1h-3l-1-2h-1l-1-3v-2l-1-1-1-4-3-1h-2l-4-1v-1h-1v-3l-3-1-4 4h-1l-2 1-1 1v1h-1l-5 1h-2l-4-2-2-3-1-2v-3l1-2 1-4 2-1 3-2 6-2 3-1h5l5 1 1-4-1-1 4-1zm-37 50 3-1h3l2-1 2 1 1 2h2l3-1h1l1-1h5l6-2h4l4 1 2 1v1l1 1 2 4h1l1 2 1 2h-1v1l-4 1-1 2-2 1-2-1-2-2h-3l-3 2-2-1-3-1h-2l-4 1-1 2-3 1-1 2-1 2-2-1 1-3-2-3-3-3-3-2-1-1-1-4zm264-250-2 2-1-1v-1l1-1 1-3 1 1 1 1h4l-1 1zm90 25-2 1-4-1-1 1-1 1-4 4v2l3 5v1l-3 7-1 2-1 2-1 1-2 1-11 2-5 2h-2l-2-1-2-1-5-5h-1l-1-2-5-4-4-3-5-2-6-2h-2l-4-2h-5l-1 1-3 1v-1h-1l-1-1-1-1-1-2v-7l-1-1v-1l6-4 1-1 1-2 1-1 2-1 1-1 8-4 6-4 2-1 1-1 7-4 3-2 6-4 1-1 2-1h2l1-1 2-1 2-1 2-2v-1l1-1v-4h1l1-1 1-2v-2l1-1h3l3-1 1-1 4-4 1-1 2-2 3-2h2l4-1 3-1 2-1h1l1-1 1-1 3 3 2 1h2l1 1h1l4 1 6 1h1l1 2h8l3 1 1 1 1 1 1 1 1 2v1l1 2 1 2 1 4-2 9-1 3-1 2-2 3-2 3-3 4-1 3v1l-2 1-4 2-2 1h-6l-5 1-10 6-2 2z" clip-path="url(#m)"/>
  <path fill="#e0e0e0" stroke="#0978ab" stroke-miterlimit="3.9" stroke-width="1.4" d="m875 6-7 1h-4l-11 2h-4l-1-1V7h2l1-1 12-1 3-1h4l6-1 2 1 6-1h1l1 2-6 1zm-23 15-3-1-2-1v-5h1l1-1 1-1h1l3 2h3v1l-3 3-1 2-1-1v1zm-30 15h-5l-1 1-5-3-2-1v-5l1-1 10-3 2-2 2-1h3l2 1 3 3 4 1 1 1v1l-5-1-3 2h-4l-2 2-3 1v1h1l3 3 2 1-1 1-1 1-1-1z" clip-path="url(#n)"/>
  <path fill="#66cc66" stroke="#0978ab" stroke-miterlimit="3.9" stroke-width="1.4" d="M797 47h-2l-3-2 1-2h6l1 1h-2l-2 2zm-17 0-1-1-1 1h-1l-2-1-4-1-2 1h-1v-1l1-3h2l2 1 5 1 2 1zm-55 18h-7l-1 2h-2v2l-2 2h-1v-3l1-1v-1l-1 1-1-1v-2l2-3 2-2 2-2 23-3h5l4 1 1 1-2 2h-2l-2 1-5 1-2 2-4 2zm-27 8-1-1v-1l-1-2h1l3-1 1 2v1l-1-1-1 1-1 1zm-77 3-2-3v-2l1-1-1-1v-1l1-1 2-1h2l5 2 3 1h6l20-1 10-1 7-1h6l2 1 1 1-3 2-8-1-4 2-8 2-4 1-3 1h-4l-4-1h-2l-4-1-1 1-3 3-3 1h-8zm-70 20h-3l-1 3h-2v1l-3 2-1 1-2-1-2-1-1-4v-2l6-5 2-2 1-1h1-2v-1l1-1 2 1h1l3-1h6l1-1h4l13-4 3-1 20-6 7-2h3l4 1v1l-2 1h-2l-1 2-3 1-1 1h-2l-2 1h-2l-1 1-1 1-2-1v2h-1l-2-2h-1v1l3 3-1 1h-12l-6 3-2 1v1l-4 2h-4l-1 1-2 1-1-1h-4l-2 1zm-44 23h1l6-4 5-2h1l5 1 1 1-1 1h-5l-2 3-4 2-5 1-2 1-4 2-1 1v1h1l1 2h1v1l-4 3-3 1-5 6h-8l-2-1-1 1-1-2 1-1 4-2 3-1 4-2 3-4 2-2 2-2 5-3zm-37 82v1l-1-1v1l-1 1-1 1h-2v1h-2l-4 1h-1l-1-1-1-1v-2l-1-3v-2l2-12 1-2 1-3 2-2 1-3 3-4v-1l6-9 2-2 3-5h1l4-5 1 1 3 3v2l1 2 2 1h1l2 5v1l-1 4v11l-4 3-1 5-4 4-2 2-4 1-4 5zm107-16-2-1-2-3 1-1 2 1 1 3z" clip-path="url(#o)"/>
  <path fill="none" stroke="#646464" stroke-linejoin="round" stroke-miterlimit="2" stroke-width="2" d="M371 673h6l11-1 1 2 1 3 2 1h9l3-2v-3l-6-8-2-5v-4l-1-2 8-5 3-2h2v-1h3l1-2h2l10-1v6l1 6 2 4 1-1 3-1h2l6 2 4 1 2-1h5l3-3 1-2 1-2 1-2 2-4v-2l1-1 2-2h1l2-3 4-2 1 1 5 2 2 3 1 1-1 3v3l-2 1v3l1 3 1 1v3l-8-3h-2v5l3 1h14l4-1 2 1 5 5 2-2 11-11 3-2v-2l1-1-1-4 3-3 1-1 1-1 1 4v1l1 1h5l1 4 2 8-4 10 4 3 1 1 5 7v1l2 6-1 4h5l8-2 1 1 1 1 4 3-3 10 2 2v1h1l3-1h15l2-4 8 2h1l3 1 2-3h1l2-1 4-2v-1l3-3 10 6 3 4v11l3 2 1 1h1l2 3 2 3 11 2 1 1h1l3 1h3l3-1 4-1 7 4h1l1 2v1h1v2h4l2 1 2 1-2 2-1 1-1 1-1 1h-2l-2 4v4l1 1h-1l-1 1-1 1v3l1 2h-1v2h-1l-2 1h-1l-1 3v2l-2 4v3l2 1-1 3v3l-1 2-4 4-1 2-3 4 2 3 1 1 3-1-1 2-3 3-1 5-2 1-3 1-1 2v2l-1 2v3l-2-1-2 3h-1v4l1 6 1 1 3 2 3 5 1 1 1 1 1 2 1 4v2l-3 6 2-2v1l2-1 1-1 1 2h2v-2l2-2 3-3h1l1 1 1 3 2-1 2 5h2l5-3h1l1 2 2-1v-1h2l1-1 1 1v2l1 1v1h2l1-1 1 1h1l2-1 1-1h1l3-1h2l1 2 1 1 4-1 4 1" clip-path="url(#r)" clip-rule="evenodd"/>
  <path fill="none" stroke="#646464" stroke-linejoin="round" stroke-miterlimit="2" stroke-width="2" d="m908 132 1 5q2 8-1 14l-2 3-1 4-1 5c-1 5 2 4 3 7v8l1 20 1 1-1 5-2 7-4 11-5 7-1 3-3 4-6 7-1 5c1 3-3 5-3 8l-1 3v16l-1 8-1 10 1 7c-1 2-2 8-4 9-5 2-8-4-11-4l-1 2h-10q0-2-3-3l-1-1-4 1h-11c-4 0-4-2-9 0-3 1-6 6-8 6v1c4 5 1 6 0 11l8 6-1 1h-6l-1 3-5 1h-1l3 5v12l1 2 8 6c4 5 14 0 18 2l1 2h1l1 1 7 2h2l6 1c2 0 5-5 6-7h1c2 1 4 10 5 12l3 3c5 3 5 2 6 9l1 6c-1 3-6 11-6 14-3 8-3 9 1 17l1 4q-4 3-10 3c-4 2-4 9-7 12-1 2-9 3-9 3l-3 5q-2 0-2 2c-2 3 0 7-3 9-4 2-16-1-19 1v1l-1 4h-1v5c-2 3-8 2-10 4l-1 4v4l1 1c7-1 5 0 11 3 4 3 7 3 10 8l3 3 1 7q-2 2-5 2l-2 8-7 5-1 2-5 2-5-3-1-2-5 3-12 3-6 3h-2l-4 3-4 2c-3 2 0 2-5 4h-3l-2-2h-2l-5-1-3-1v1l1 2 1 8h-8l1-4-8-2h-2l-2-4-4-3-2 1h-3q-5 2-9-1l-1-2-1-1-1-3-4-3-3 1-2 1h-3l-1 2 2 1q3 3 3 6c2 3 6 1 5 6v3l-1 2-18-6-2-1-3 2-5 5c-4 1-7-2-11 1v1l2 1h-1l-1 1v1c6 1 2 5 5 7l1 1 1 1v1l-1 1 1 2-5 5-1 1 1 3 5-1 10 7h-1l-1 1v10c1 4 7 5 10 5l5 2 1 1c-1 2-5 12-4 13l4 3 2 7 5 2 2 6 7 9v3q1 7 3 10l-2 6 1 4-2 8v1l3 1v1l-1 1c-1 2 2 7 1 9l-5 5-2 3-3 1-2 4-4 7-1 4-5 5-5 4v1l1 3 1 1v1h-2l-1 1 1 5v5l2 4h1l4-1 2-2 8-4 3 3-6 2-2 1 3 2 2 1 1 2-3 2-6 3-5 1v1l-1 1-1 1v1l-2 1h-2l-2 4-3 3h-3l-3 3h-1l-3 4-2 2v5l-3 2-2 1-1-1-3-4-1-3-1-1-4 4-1 1-3 1 3 4-1 3 1 2 3 2v2l1 2v3l-2 2 1 1 5-2 3-2h2l2 2h4l2-1h1l4 1 1 1v1h-1l-2 4-1 1 1 1 1 1-1 2 1 2 1 1 6 1 1 1 4 1v4l-1 1v2l-1 4 2 2 1 2-1 1-1 1-1 4h-2l-2-1-1 1h-3l-1 1-1 3v1l1 3v3l-3 3h-2l-2-2-1 1-1 2 2 2h1l5 5h1v2l-1 3 1 2 3 2v1l-1 4v2h1l1 1 2-2h1l1 1h8l1 2 1 3 5 8 1 1h1l1 3 1 2h2l1 1-1 1-3 2 1 2 2 1v1h1l2-1h3l3 2h2l5-1v3l-2 2-2 2v4l-1 1-2-1-1-1-1 3-3 2-1 2-4 3v4l1 1 1 1 1-1 1 2v1l-1 1 2 3 1 1v1h1l2 4 1 1 2-2h7l1 1h4l4 1 2 2v4l-1 1 1 1v1l1 1 5 3v4l-2 3v5l-4 6-1 2 4 3 1 2 1 1 5 4v7h-2l-5 3-2-2-1-1h-2l-1-1-1 1h-2l-1 2-1 1-1 3-1 2v2l1 2-3 3h-4l-1 1-4 1-1 1-3 1v3l-2 1-1 1h-2v1h-1v2l-1 1 1 1 1 1 1 1v5l1 3v2l-4-1h-1l-1 2-1-1-2 3 1 3-1 1h2l1 3-1 2h-1l-1 1-1 1 1 1h-1l-1 1v1l1 2-1 2-1 1 2 2-1 1h-2v5l1 1-1 2v1l1 1 1 2 1 2-1 3 1 1 2 2-2 2h1l1 1 1 1v1l-2 2 2 1v1l1 1h1l1 1h1l-1 4v1l2 3h3l1 1v1h3v2l1 2v3l1 2 1 1-1 2 1 1 1 3h1l2 2 1 2 2 1h2l1 1 1 2h2l1-1 2 5v4l1 1h1l1-1 1-2 4-1 7 10h3l2 1h1l2 1h1l2-3h1l1 1v1h1l1 1h3l1 2 1-2 1-1h1v2l-1 2-1 2-1 1h-1 1l1 2-1 2 1 2 1 2h-1l-2 2-1 2v1l1 2v1l2 2v2l-3-2-1 2 1 1v2l-2 2 1 2-2 3h-2l-2 3-1 1-1 2h-1l2 3v3l-2 5-2 4-1 2-2 2-1 2-2 1h-1l-1 1h1l1 2-1 2-1 2 2 3-1 4-2 2-1 1-1 2 2 8v10l-3 1h-1l-1-1-4-1-1-2-1-1h-4v-3l-1 1-2-2v-3h-3l-1-1-2-1-1-1v1h-4l-2 1-1 1-3-1h-3l-2 1h-1l1 3h-1l-2 2-1-2-2-1-1 7h-1l-2 1-3 1h-7l-1 3v2l-2-1-2-1h-3l-2-1h-2l-1-2h-1l-1-4v-4l-2-1-3-2h-8l-2 1v-1l-3 1-2-2-1-2-1-2h-1l-1-2v-1l1-1-1-1 1-1-1-1h-1l-1 1h-2v-3h-1l-1-1h-2l-1-2h-1l-2-1h-2l-1 2v4l-2 1-1-1-1-1h-1l-1 1h-3l-5-2h-5l-3 1v1l-2 2-1 2 1 3-1 1v2h-2l-1-3-1-1-4-2-2-1-2 1-2 3-3 2-2 1-5-1-1 2v3l-2-2-1-2-4-3 1-1h1l2-2 1-1v-1l-2-2-2-2 2-5h-3l-2-6 1-2-8-7-2-1-1-1h-2l-2-2-1 1v2l-4 1-1 1-1 1-1-4v-3l2-3 2-2-2-4-1-1-1-1-4-3-3-3h-2l-2 2h-6l-1-2h-8v-5l-1-2h-1l-1 2h-1l-1-1h-2v-4l-6-9-1-1h-4v-1l-1-1h-3l-3-2-3-2-2-3v-1l-2-1-2-1h-1l-1 1-1-1h-1l-2 2v1l-4 1-3 1h-2l-3-2h-1l-1 1h-2v-1l1-1 1-5 2-1v-1l-2-3v-3l-2-1-1-5 2-1 1-2v-2l1-2 2-3v-2l-1-4v-2l-2-2-1-1-2-4-2-1h-1l-5-1h-1l-2-2 1-4 1-2h2l1-3v-2h1l-1-2 1-1-1-2 1-4 3-3v-2l-3-2 1-1v-3h2l1-2v-7h3l1 3h1v-3l-1-1 1-3v-3l2-2 2-2-2-2v-2l-1-1-3 1-4-2-1-1-2-1h-1v1l-2 3h-1l-1 1-5 3-2 3v3l-1 2-1 1h-2l-5 3-1 1-1 2-1 2-1 1-1 3 1 1 3 1v1l-1 6-2 5v4l-1 1-3 1-2 1h-1l-4 1-1 1h-5l-3 1-1 3-2 1h-4l-1 2-1 1-3 3h-4l-1 1-4 1-3 1-1-1-1-1-5-1h-3l-1-2h-6l-1-1-2-2h-1l-3-1h-3l-2 1h-6l-3 2h-4l-2 1-1-1 1-3-2-1h-1l-1-1-1-1-3 1h-1v-2l2-3 1-1-2-2h-1l-1-3v-5l3-5 1-1h2l2 1 1-1 1-2 5-3 1-1v-2l-1-2-2-2-2-2v-2l-1-1 1-2-1-2v-1l1-1-2-1h-5l-2 1-1 1h-2l-1-2 1-3v-2l3-3v-3l-1-1 1-2 1-2 1-2-2-5v-1h3l1-2 1-2 5-4 1-2v-4l-2-2-1-1h-2l-2-1v-2h-3l-1 1v2l3 2v2l-3 1h-2l-1-1v-2l-1-1h-1v-4l-1-1v-3l-1-1-2-2-2-1-2 1-1-4-1-1h-2l-1-3-2-1-1-1v-1l-1-1-1-1h-1l-1 2h-2l-2 1-1 1-2-1-1 1-1-1-2 1h-1l-3 3-5 1-3-1v-2h-4l-3-4-5 1v1h-1l-1-1v-1h-7l-3 2v-1h-2l-2 3-1 4v4l-3-2h-1l1 3h-1l-2-1-2-2v-1l-1-2-1-3-1-3-1-3-1-2 1-3 2-5v-5l-1-3v-2l-1-2-1-1v-4l-1-2h-1l-3-2v-3l-4-5h-1l-2 2h-2l-1-2h-4l-3 1-4 1-3 1-1-3 1-2 4-4-2-2-3-1-4-1-2 4-1 3h-5v1l-2 1-2-1-2 1-2 2h-1l-4-3-3-1-8-5-1-2-2-2v-3l1-2-1-1 1-1-1-2v-1l1-1-1-3v-4l-1-1v-2l-2-3-1-2-1-3-1-1 1-1-1-2-1-3 1-2v-1l4-2-2-3v-3l-2-3-1-1h-4l-1-2-2-1 1-2-1-2-2-1-1-2v-1l-1-1-2-2-3-6v-1l-2-2h-1l-1 1h-2l-1 1-4 3h-2l-3-1h-2l-4 2h-3v1l-2 1-2 1-1 1-2 2h-4l-2 2v3l-1 1h-1v2l-1 3v2l-1 1h-3v1l-1-1-1-1h-3l-1-1-1-2-1-2-2-1-4 2h-1l-4-2-1-3v-3l-1-2-3-1v-1l-1-3-2-3-3-2v-2l-2-1v-4l-1-1-2-1-3 1h-1l-1-2-1-1h-1l-2 2-1 1h-3l-1-5-1-2-1-3h-1l-2-1 2-4-1-3 1-1-1-2 1-4-1-2-1-2h-1l-1-1 1-2 4-4v-1l2-2-1-4-2-2v-1l-1-3v-2l-4-2h-1l-1-1-1-4 1-2-2-11v-2l-1-1v-1l-1-2v-1l-1-2" clip-path="url(#t)" clip-rule="evenodd"/>
</svg>
